<?xml version="1.0" standalone="no"?><!DOCTYPE svg PUBLIC "-//W3C//DTD SVG 1.1//EN" "http://www.w3.org/Graphics/SVG/1.1/DTD/svg11.dtd"><svg t="1735201915816" class="icon" viewBox="0 0 1024 1024" version="1.1" xmlns="http://www.w3.org/2000/svg" p-id="36234" xmlns:xlink="http://www.w3.org/1999/xlink" width="200" height="200"><path d="M298.473575 509.91854A211.602056 211.602056 0 1 0 509.91854 298.473575 211.602056 211.602056 0 0 0 298.473575 509.91854z m0 0" fill="#d81e06" p-id="36235"></path><path d="M509.91854 933.201197c-232.338115 0-419.119736-190.865997-419.119737-423.282657a417.941551 417.941551 0 0 1 419.119737-419.041191 425.010662 425.010662 0 0 1 423.282657 423.204111c0 228.253739-190.865997 419.119736-423.282657 419.119737z m0-767.626908a344.422797 344.422797 0 1 0 344.422796 344.422796c4.162921-190.865997-153.5568-344.422797-344.422796-344.422796z m0 0" fill="#d81e06" p-id="36236"></path><path d="M7.854568 489.182481h261.400015v45.635038H7.854568z m746.890849 0h261.400015v45.635038H754.745417zM489.182481 7.854568h45.635038v261.400015h-45.635038z m0 746.890849h45.635038v261.400015h-45.635038z m0 0" fill="#d81e06" p-id="36237"></path></svg>